<svg width="141" height="66" viewBox="0 0 141 66" fill="none" xmlns="http://www.w3.org/2000/svg">
<g filter="url(#filter0_d_753_812)">
<path d="M17.3228 41.0029C17.7329 41.0029 18.0713 41.0542 18.3379 41.1567C18.6068 41.257 18.8073 41.4108 18.9395 41.6182C19.0716 41.8255 19.1377 42.0898 19.1377 42.4111C19.1377 42.6755 19.0898 42.8965 18.9941 43.0742C18.8984 43.2497 18.7731 43.3921 18.6182 43.5015C18.4632 43.6108 18.298 43.6951 18.1226 43.7544L19.4932 46H18.8164L17.5928 43.915H16.5537V46H15.9727V41.0029H17.3228ZM17.2886 41.5054H16.5537V43.4229H17.3467C17.7546 43.4229 18.0542 43.3397 18.2456 43.1733C18.4393 43.007 18.5361 42.762 18.5361 42.4385C18.5361 42.099 18.4336 41.8586 18.2285 41.7173C18.0257 41.576 17.7124 41.5054 17.2886 41.5054ZM22.393 46V41.0029H22.974V46H22.393ZM29.9378 41.0029L28.1434 46H27.5589L25.7645 41.0029H26.3729L27.5418 44.2944C27.5896 44.4266 27.6318 44.5531 27.6683 44.6738C27.707 44.7946 27.7412 44.9108 27.7708 45.0225C27.8004 45.1341 27.8266 45.2424 27.8494 45.3472C27.8722 45.2424 27.8984 45.1341 27.928 45.0225C27.9576 44.9085 27.9918 44.7912 28.0306 44.6704C28.0693 44.5474 28.1126 44.4186 28.1604 44.2842L29.3226 41.0029H29.9378ZM35.507 46H32.7248V41.0029H35.507V41.5156H33.3059V43.1323H35.3806V43.6382H33.3059V45.4873H35.507V46ZM40.0646 41.0029C40.4747 41.0029 40.8131 41.0542 41.0797 41.1567C41.3486 41.257 41.5491 41.4108 41.6812 41.6182C41.8134 41.8255 41.8795 42.0898 41.8795 42.4111C41.8795 42.6755 41.8316 42.8965 41.7359 43.0742C41.6402 43.2497 41.5149 43.3921 41.36 43.5015C41.205 43.6108 41.0398 43.6951 40.8644 43.7544L42.235 46H41.5582L40.3346 43.915H39.2955V46H38.7145V41.0029H40.0646ZM40.0304 41.5054H39.2955V43.4229H40.0885C40.4964 43.4229 40.796 43.3397 40.9874 43.1733C41.1811 43.007 41.2779 42.762 41.2779 42.4385C41.2779 42.099 41.1754 41.8586 40.9703 41.7173C40.7675 41.576 40.4542 41.5054 40.0304 41.5054ZM47.9546 44.6704C47.9546 44.9666 47.8805 45.2196 47.7324 45.4292C47.5866 45.6366 47.3815 45.7949 47.1172 45.9043C46.8529 46.0137 46.5418 46.0684 46.1841 46.0684C45.995 46.0684 45.8161 46.0592 45.6475 46.041C45.4788 46.0228 45.3239 45.9966 45.1826 45.9624C45.0413 45.9282 44.9172 45.8861 44.8101 45.8359V45.2788C44.981 45.3494 45.1895 45.4155 45.4355 45.4771C45.6816 45.5363 45.9391 45.5659 46.208 45.5659C46.4587 45.5659 46.6706 45.5329 46.8438 45.4668C47.0169 45.3984 47.1479 45.3016 47.2368 45.1763C47.328 45.0487 47.3735 44.896 47.3735 44.7183C47.3735 44.5474 47.3359 44.4049 47.2607 44.291C47.1855 44.1748 47.0602 44.07 46.8848 43.9766C46.7116 43.8809 46.4746 43.7795 46.1738 43.6724C45.9619 43.5972 45.7751 43.5151 45.6133 43.4263C45.4515 43.3351 45.3159 43.2326 45.2065 43.1187C45.0972 43.0047 45.014 42.8726 44.957 42.7222C44.9023 42.5718 44.875 42.3997 44.875 42.2061C44.875 41.9395 44.9422 41.7116 45.0767 41.5225C45.2134 41.3311 45.4014 41.1852 45.6406 41.085C45.8822 40.9824 46.159 40.9312 46.4712 40.9312C46.7378 40.9312 46.9839 40.9562 47.2095 41.0063C47.4373 41.0565 47.6458 41.1237 47.835 41.208L47.6538 41.707C47.4738 41.6318 47.2824 41.5692 47.0796 41.519C46.8791 41.4689 46.6717 41.4438 46.4575 41.4438C46.2433 41.4438 46.0622 41.4757 45.9141 41.5396C45.7682 41.6011 45.6566 41.6888 45.5791 41.8027C45.5016 41.9167 45.4629 42.0522 45.4629 42.2095C45.4629 42.3849 45.4993 42.5308 45.5723 42.647C45.6475 42.7632 45.766 42.8669 45.9277 42.958C46.0918 43.0469 46.3083 43.1403 46.5771 43.2383C46.8711 43.3454 47.1206 43.4593 47.3257 43.5801C47.5308 43.6986 47.6868 43.8444 47.7939 44.0176C47.901 44.1885 47.9546 44.4061 47.9546 44.6704ZM51.0766 46V41.0029H51.6576V46H51.0766ZM59.0999 43.4536C59.0999 44.0164 58.9974 44.487 58.7923 44.8652C58.5872 45.2412 58.2898 45.5249 57.9002 45.7163C57.5128 45.9054 57.0423 46 56.4886 46H55.1316V41.0029H56.639C57.1471 41.0029 57.5846 41.0964 57.9515 41.2832C58.3183 41.4678 58.6009 41.7424 58.7991 42.1069C58.9996 42.4692 59.0999 42.9181 59.0999 43.4536ZM58.4881 43.4741C58.4881 43.0252 58.4129 42.6549 58.2625 42.3633C58.1144 42.0716 57.8956 41.8551 57.6063 41.7139C57.3191 41.5703 56.9671 41.4985 56.5501 41.4985H55.7127V45.501H56.4202C57.1084 45.501 57.6245 45.3312 57.9686 44.9917C58.3149 44.6522 58.4881 44.1463 58.4881 43.4741ZM65.093 46H62.3107V41.0029H65.093V41.5156H62.8918V43.1323H64.9665V43.6382H62.8918V45.4873H65.093V46ZM73.5688 41.0029C73.979 41.0029 74.3174 41.0542 74.584 41.1567C74.8529 41.257 75.0534 41.4108 75.1855 41.6182C75.3177 41.8255 75.3838 42.0898 75.3838 42.4111C75.3838 42.6755 75.3359 42.8965 75.2402 43.0742C75.1445 43.2497 75.0192 43.3921 74.8643 43.5015C74.7093 43.6108 74.5441 43.6951 74.3687 43.7544L75.7393 46H75.0625L73.8389 43.915H72.7998V46H72.2188V41.0029H73.5688ZM73.5347 41.5054H72.7998V43.4229H73.5928C74.0007 43.4229 74.3003 43.3397 74.4917 43.1733C74.6854 43.007 74.7822 42.762 74.7822 42.4385C74.7822 42.099 74.6797 41.8586 74.4746 41.7173C74.2718 41.576 73.9585 41.5054 73.5347 41.5054ZM81.4213 46H78.6391V41.0029H81.4213V41.5156H79.2201V43.1323H81.2948V43.6382H79.2201V45.4873H81.4213V46ZM87.4485 44.6704C87.4485 44.9666 87.3745 45.2196 87.2264 45.4292C87.0805 45.6366 86.8755 45.7949 86.6111 45.9043C86.3468 46.0137 86.0358 46.0684 85.678 46.0684C85.4889 46.0684 85.31 46.0592 85.1414 46.041C84.9728 46.0228 84.8178 45.9966 84.6766 45.9624C84.5353 45.9282 84.4111 45.8861 84.304 45.8359V45.2788C84.4749 45.3494 84.6834 45.4155 84.9295 45.4771C85.1756 45.5363 85.4331 45.5659 85.702 45.5659C85.9526 45.5659 86.1645 45.5329 86.3377 45.4668C86.5109 45.3984 86.6419 45.3016 86.7308 45.1763C86.8219 45.0487 86.8675 44.896 86.8675 44.7183C86.8675 44.5474 86.8299 44.4049 86.7547 44.291C86.6795 44.1748 86.5542 44.07 86.3787 43.9766C86.2055 43.8809 85.9686 43.7795 85.6678 43.6724C85.4559 43.5972 85.269 43.5151 85.1072 43.4263C84.9454 43.3351 84.8099 43.2326 84.7005 43.1187C84.5911 43.0047 84.5079 42.8726 84.451 42.7222C84.3963 42.5718 84.3689 42.3997 84.3689 42.2061C84.3689 41.9395 84.4362 41.7116 84.5706 41.5225C84.7073 41.3311 84.8953 41.1852 85.1346 41.085C85.3761 40.9824 85.653 40.9312 85.9651 40.9312C86.2317 40.9312 86.4778 40.9562 86.7034 41.0063C86.9313 41.0565 87.1398 41.1237 87.3289 41.208L87.1478 41.707C86.9677 41.6318 86.7763 41.5692 86.5735 41.519C86.373 41.4689 86.1657 41.4438 85.9515 41.4438C85.7373 41.4438 85.5561 41.4757 85.408 41.5396C85.2622 41.6011 85.1505 41.6888 85.073 41.8027C84.9956 41.9167 84.9568 42.0522 84.9568 42.2095C84.9568 42.3849 84.9933 42.5308 85.0662 42.647C85.1414 42.7632 85.2599 42.8669 85.4217 42.958C85.5857 43.0469 85.8022 43.1403 86.0711 43.2383C86.365 43.3454 86.6145 43.4593 86.8196 43.5801C87.0247 43.6986 87.1808 43.8444 87.2879 44.0176C87.395 44.1885 87.4485 44.4061 87.4485 44.6704ZM94.9045 43.4946C94.9045 43.8797 94.8555 44.2306 94.7575 44.5474C94.6595 44.8618 94.5137 45.133 94.32 45.3608C94.1286 45.5864 93.8905 45.7607 93.6057 45.8838C93.3208 46.0068 92.9904 46.0684 92.6144 46.0684C92.2271 46.0684 91.8887 46.0068 91.5993 45.8838C91.3122 45.7607 91.0729 45.5853 90.8815 45.3574C90.6924 45.1296 90.55 44.8573 90.4543 44.5405C90.3609 44.2238 90.3142 43.8729 90.3142 43.4878C90.3142 42.9774 90.3985 42.5296 90.5671 42.1445C90.7357 41.7594 90.9909 41.4598 91.3327 41.2456C91.6768 41.0314 92.1074 40.9243 92.6247 40.9243C93.1192 40.9243 93.535 41.0303 93.8723 41.2422C94.2118 41.4541 94.4681 41.7526 94.6413 42.1377C94.8168 42.5205 94.9045 42.9728 94.9045 43.4946ZM90.926 43.4946C90.926 43.9185 90.9864 44.2853 91.1071 44.5952C91.2279 44.9051 91.4125 45.1444 91.6608 45.313C91.9115 45.4816 92.2294 45.5659 92.6144 45.5659C93.0018 45.5659 93.3186 45.4816 93.5646 45.313C93.813 45.1444 93.9964 44.9051 94.1149 44.5952C94.2334 44.2853 94.2927 43.9185 94.2927 43.4946C94.2927 42.8498 94.1571 42.3462 93.8859 41.9839C93.6171 41.6193 93.1966 41.437 92.6247 41.437C92.2373 41.437 91.9183 41.5202 91.6677 41.6865C91.417 41.8529 91.2302 42.0898 91.1071 42.3975C90.9864 42.7028 90.926 43.0685 90.926 43.4946ZM99.4688 41.0029C99.879 41.0029 100.217 41.0542 100.484 41.1567C100.753 41.257 100.953 41.4108 101.086 41.6182C101.218 41.8255 101.284 42.0898 101.284 42.4111C101.284 42.6755 101.236 42.8965 101.14 43.0742C101.045 43.2497 100.919 43.3921 100.764 43.5015C100.609 43.6108 100.444 43.6951 100.269 43.7544L101.639 46H100.963L99.7389 43.915H98.6998V46H98.1188V41.0029H99.4688ZM99.4347 41.5054H98.6998V43.4229H99.4928C99.9007 43.4229 100.2 43.3397 100.392 43.1733C100.585 43.007 100.682 42.762 100.682 42.4385C100.682 42.099 100.58 41.8586 100.375 41.7173C100.172 41.576 99.8585 41.5054 99.4347 41.5054ZM106.074 46H105.489V41.5156H103.917V41.0029H107.639V41.5156H106.074V46Z" fill="white"/>
</g>
<g filter="url(#filter1_d_753_812)">
<path d="M17.41 32.852V21.512H15.43V20.864H17.41V16.22L24.106 14.564V20.864H28.786V21.512H24.106V33.644C24.106 34.772 24.214 35.6 24.43 36.128C24.67 36.656 25.15 36.92 25.87 36.92C26.59 36.92 27.214 36.56 27.742 35.84C28.294 35.12 28.654 34.136 28.822 32.888L29.434 32.96C29.242 34.616 28.714 35.936 27.85 36.92C26.986 37.88 25.558 38.36 23.566 38.36C21.574 38.36 20.05 37.964 18.994 37.172C17.938 36.38 17.41 34.94 17.41 32.852ZM41.7384 21.512V20.864H51.0264V21.512H49.5504L52.7904 33.644L55.9944 21.512H53.5104V20.864H58.3704V21.512H56.8584L52.5384 38H47.6064L44.4744 26.948L41.0904 38H36.2664L30.9384 21.512H29.3184V20.864H40.2264V21.512H38.0664L41.3784 33.752L43.9704 25.328L43.0704 21.512H41.7384ZM64.7418 18.38C63.4698 18.38 62.5578 18.056 62.0058 17.408C61.4778 16.76 61.2138 15.956 61.2138 14.996C61.2138 14.036 61.5018 13.244 62.0778 12.62C62.6778 11.996 63.5778 11.684 64.7778 11.684C65.9778 11.684 66.8898 11.972 67.5138 12.548C68.1378 13.1 68.4498 13.904 68.4498 14.96C68.4498 15.992 68.1498 16.82 67.5498 17.444C66.9498 18.068 66.0138 18.38 64.7418 18.38ZM59.3058 20.864H68.1258V37.352H70.1418V38H59.4498V37.352H61.4298V21.512H59.3058V20.864ZM70.9476 20.864H79.6236V24.176C80.0076 23.072 80.5956 22.184 81.3876 21.512C82.1796 20.84 83.3796 20.504 84.9876 20.504C88.7076 20.504 90.5676 22.508 90.5676 26.516V37.352H92.5836V38H82.3956V37.352H83.8716V25.652C83.8716 24.212 83.7756 23.288 83.5836 22.88C83.3916 22.448 83.0436 22.232 82.5396 22.232C81.7716 22.232 81.0876 22.736 80.4876 23.744C79.9116 24.752 79.6236 25.976 79.6236 27.416V37.352H81.1716V38H70.9476V37.352H72.9276V21.512H70.9476V20.864ZM109.608 21.152C108.552 21.152 107.796 21.728 107.34 22.88C106.884 24.032 106.656 25.94 106.656 28.604V30.476C106.656 32.852 106.92 34.556 107.448 35.588C107.976 36.62 108.948 37.136 110.364 37.136C111.78 37.136 112.908 36.656 113.748 35.696C114.588 34.736 115.128 33.644 115.368 32.42L116.016 32.492C115.56 34.556 114.72 36.044 113.496 36.956C112.248 37.892 110.532 38.36 108.348 38.36C105.564 38.36 103.428 37.616 101.94 36.128C100.452 34.616 99.708 32.42 99.708 29.54C99.708 26.636 100.548 24.404 102.228 22.844C103.932 21.284 106.296 20.504 109.32 20.504C111.456 20.504 113.088 20.924 114.216 21.764C115.344 22.58 115.908 23.612 115.908 24.86C115.908 26.108 115.632 27.02 115.08 27.596C114.552 28.172 113.808 28.46 112.848 28.46C111.912 28.46 111.156 28.208 110.58 27.704C110.004 27.2 109.716 26.456 109.716 25.472C109.716 25.04 109.776 24.608 109.896 24.176H111.084C111.252 23.696 111.336 23.264 111.336 22.88C111.336 21.728 110.76 21.152 109.608 21.152ZM125.606 20.864V34.904C125.606 38.84 124.922 41.84 123.554 43.904C122.21 45.968 120.002 47 116.93 47C114.938 47 113.486 46.604 112.574 45.812C111.638 45.02 111.17 44.096 111.17 43.04C111.17 41.984 111.482 41.168 112.106 40.592C112.73 40.04 113.51 39.764 114.446 39.764C115.382 39.764 116.09 40.016 116.57 40.52C117.026 41.048 117.254 41.624 117.254 42.248C117.254 42.872 117.182 43.472 117.038 44.048H115.67C115.286 44.696 115.238 45.248 115.526 45.704C115.79 46.16 116.282 46.388 117.002 46.388C117.746 46.388 118.25 45.968 118.514 45.128C118.778 44.312 118.91 42.608 118.91 40.016V21.512H116.57V20.864H125.606ZM122.186 18.38C120.914 18.38 120.002 18.056 119.45 17.408C118.922 16.76 118.658 15.956 118.658 14.996C118.658 14.036 118.946 13.244 119.522 12.62C120.122 11.996 121.022 11.684 122.222 11.684C123.422 11.684 124.334 11.972 124.958 12.548C125.582 13.1 125.894 13.904 125.894 14.96C125.894 15.992 125.594 16.82 124.994 17.444C124.394 18.068 123.458 18.38 122.186 18.38Z" fill="white"/>
</g>
<defs>
<filter id="filter0_d_753_812" x="11.9727" y="40.9243" width="99.666" height="13.144" filterUnits="userSpaceOnUse" color-interpolation-filters="sRGB">
<feFlood flood-opacity="0" result="BackgroundImageFix"/>
<feColorMatrix in="SourceAlpha" type="matrix" values="0 0 0 0 0 0 0 0 0 0 0 0 0 0 0 0 0 0 127 0" result="hardAlpha"/>
<feOffset dy="4"/>
<feGaussianBlur stdDeviation="2"/>
<feComposite in2="hardAlpha" operator="out"/>
<feColorMatrix type="matrix" values="0 0 0 0 0 0 0 0 0 0 0 0 0 0 0 0 0 0 0.25 0"/>
<feBlend mode="normal" in2="BackgroundImageFix" result="effect1_dropShadow_753_812"/>
<feBlend mode="normal" in="SourceGraphic" in2="effect1_dropShadow_753_812" result="shape"/>
</filter>
<filter id="filter1_d_753_812" x="0.429688" y="0.684082" width="140.465" height="65.3159" filterUnits="userSpaceOnUse" color-interpolation-filters="sRGB">
<feFlood flood-opacity="0" result="BackgroundImageFix"/>
<feColorMatrix in="SourceAlpha" type="matrix" values="0 0 0 0 0 0 0 0 0 0 0 0 0 0 0 0 0 0 127 0" result="hardAlpha"/>
<feOffset dy="4"/>
<feGaussianBlur stdDeviation="7.5"/>
<feComposite in2="hardAlpha" operator="out"/>
<feColorMatrix type="matrix" values="0 0 0 0 0 0 0 0 0 0 0 0 0 0 0 0 0 0 0.25 0"/>
<feBlend mode="normal" in2="BackgroundImageFix" result="effect1_dropShadow_753_812"/>
<feBlend mode="normal" in="SourceGraphic" in2="effect1_dropShadow_753_812" result="shape"/>
</filter>
</defs>
</svg>
