<svg width="113" height="36" viewBox="0 0 113 36" fill="none" xmlns="http://www.w3.org/2000/svg">
<g filter="url(#filter0_d_753_812)">
<path d="M2.32275 30.0029C2.73291 30.0029 3.07129 30.0542 3.33789 30.1567C3.60677 30.257 3.80729 30.4108 3.93945 30.6182C4.07161 30.8255 4.1377 31.0898 4.1377 31.4111C4.1377 31.6755 4.08984 31.8965 3.99414 32.0742C3.89844 32.2497 3.77311 32.3921 3.61816 32.5015C3.46322 32.6108 3.29801 32.6951 3.12256 32.7544L4.49316 35H3.81641L2.59277 32.915H1.55371V35H0.972656V30.0029H2.32275ZM2.28857 30.5054H1.55371V32.4229H2.34668C2.75456 32.4229 3.0542 32.3397 3.24561 32.1733C3.43929 32.007 3.53613 31.762 3.53613 31.4385C3.53613 31.099 3.43359 30.8586 3.22852 30.7173C3.02572 30.576 2.7124 30.5054 2.28857 30.5054ZM7.39297 35V30.0029H7.97402V35H7.39297ZM14.9378 30.0029L13.1434 35H12.5589L10.7645 30.0029H11.3729L12.5418 33.2944C12.5896 33.4266 12.6318 33.5531 12.6683 33.6738C12.707 33.7946 12.7412 33.9108 12.7708 34.0225C12.8004 34.1341 12.8266 34.2424 12.8494 34.3472C12.8722 34.2424 12.8984 34.1341 12.928 34.0225C12.9576 33.9085 12.9918 33.7912 13.0306 33.6704C13.0693 33.5474 13.1126 33.4186 13.1604 33.2842L14.3226 30.0029H14.9378ZM20.507 35H17.7248V30.0029H20.507V30.5156H18.3059V32.1323H20.3806V32.6382H18.3059V34.4873H20.507V35ZM25.0646 30.0029C25.4747 30.0029 25.8131 30.0542 26.0797 30.1567C26.3486 30.257 26.5491 30.4108 26.6812 30.6182C26.8134 30.8255 26.8795 31.0898 26.8795 31.4111C26.8795 31.6755 26.8316 31.8965 26.7359 32.0742C26.6402 32.2497 26.5149 32.3921 26.36 32.5015C26.205 32.6108 26.0398 32.6951 25.8644 32.7544L27.235 35H26.5582L25.3346 32.915H24.2955V35H23.7145V30.0029H25.0646ZM25.0304 30.5054H24.2955V32.4229H25.0885C25.4964 32.4229 25.796 32.3397 25.9874 32.1733C26.1811 32.007 26.2779 31.762 26.2779 31.4385C26.2779 31.099 26.1754 30.8586 25.9703 30.7173C25.7675 30.576 25.4542 30.5054 25.0304 30.5054ZM32.9546 33.6704C32.9546 33.9666 32.8805 34.2196 32.7324 34.4292C32.5866 34.6366 32.3815 34.7949 32.1172 34.9043C31.8529 35.0137 31.5418 35.0684 31.1841 35.0684C30.995 35.0684 30.8161 35.0592 30.6475 35.041C30.4788 35.0228 30.3239 34.9966 30.1826 34.9624C30.0413 34.9282 29.9172 34.8861 29.8101 34.8359V34.2788C29.981 34.3494 30.1895 34.4155 30.4355 34.4771C30.6816 34.5363 30.9391 34.5659 31.208 34.5659C31.4587 34.5659 31.6706 34.5329 31.8438 34.4668C32.0169 34.3984 32.1479 34.3016 32.2368 34.1763C32.328 34.0487 32.3735 33.896 32.3735 33.7183C32.3735 33.5474 32.3359 33.4049 32.2607 33.291C32.1855 33.1748 32.0602 33.07 31.8848 32.9766C31.7116 32.8809 31.4746 32.7795 31.1738 32.6724C30.9619 32.5972 30.7751 32.5151 30.6133 32.4263C30.4515 32.3351 30.3159 32.2326 30.2065 32.1187C30.0972 32.0047 30.014 31.8726 29.957 31.7222C29.9023 31.5718 29.875 31.3997 29.875 31.2061C29.875 30.9395 29.9422 30.7116 30.0767 30.5225C30.2134 30.3311 30.4014 30.1852 30.6406 30.085C30.8822 29.9824 31.159 29.9312 31.4712 29.9312C31.7378 29.9312 31.9839 29.9562 32.2095 30.0063C32.4373 30.0565 32.6458 30.1237 32.835 30.208L32.6538 30.707C32.4738 30.6318 32.2824 30.5692 32.0796 30.519C31.8791 30.4689 31.6717 30.4438 31.4575 30.4438C31.2433 30.4438 31.0622 30.4757 30.9141 30.5396C30.7682 30.6011 30.6566 30.6888 30.5791 30.8027C30.5016 30.9167 30.4629 31.0522 30.4629 31.2095C30.4629 31.3849 30.4993 31.5308 30.5723 31.647C30.6475 31.7632 30.766 31.8669 30.9277 31.958C31.0918 32.0469 31.3083 32.1403 31.5771 32.2383C31.8711 32.3454 32.1206 32.4593 32.3257 32.5801C32.5308 32.6986 32.6868 32.8444 32.7939 33.0176C32.901 33.1885 32.9546 33.4061 32.9546 33.6704ZM36.0766 35V30.0029H36.6576V35H36.0766ZM44.0999 32.4536C44.0999 33.0164 43.9974 33.487 43.7923 33.8652C43.5872 34.2412 43.2898 34.5249 42.9002 34.7163C42.5128 34.9054 42.0423 35 41.4886 35H40.1316V30.0029H41.639C42.1471 30.0029 42.5846 30.0964 42.9515 30.2832C43.3183 30.4678 43.6009 30.7424 43.7991 31.1069C43.9996 31.4692 44.0999 31.9181 44.0999 32.4536ZM43.4881 32.4741C43.4881 32.0252 43.4129 31.6549 43.2625 31.3633C43.1144 31.0716 42.8956 30.8551 42.6063 30.7139C42.3191 30.5703 41.9671 30.4985 41.5501 30.4985H40.7127V34.501H41.4202C42.1084 34.501 42.6245 34.3312 42.9686 33.9917C43.3149 33.6522 43.4881 33.1463 43.4881 32.4741ZM50.093 35H47.3107V30.0029H50.093V30.5156H47.8918V32.1323H49.9665V32.6382H47.8918V34.4873H50.093V35ZM58.5688 30.0029C58.979 30.0029 59.3174 30.0542 59.584 30.1567C59.8529 30.257 60.0534 30.4108 60.1855 30.6182C60.3177 30.8255 60.3838 31.0898 60.3838 31.4111C60.3838 31.6755 60.3359 31.8965 60.2402 32.0742C60.1445 32.2497 60.0192 32.3921 59.8643 32.5015C59.7093 32.6108 59.5441 32.6951 59.3687 32.7544L60.7393 35H60.0625L58.8389 32.915H57.7998V35H57.2188V30.0029H58.5688ZM58.5347 30.5054H57.7998V32.4229H58.5928C59.0007 32.4229 59.3003 32.3397 59.4917 32.1733C59.6854 32.007 59.7822 31.762 59.7822 31.4385C59.7822 31.099 59.6797 30.8586 59.4746 30.7173C59.2718 30.576 58.9585 30.5054 58.5347 30.5054ZM66.4213 35H63.6391V30.0029H66.4213V30.5156H64.2201V32.1323H66.2948V32.6382H64.2201V34.4873H66.4213V35ZM72.4485 33.6704C72.4485 33.9666 72.3745 34.2196 72.2264 34.4292C72.0805 34.6366 71.8755 34.7949 71.6111 34.9043C71.3468 35.0137 71.0358 35.0684 70.678 35.0684C70.4889 35.0684 70.31 35.0592 70.1414 35.041C69.9728 35.0228 69.8178 34.9966 69.6766 34.9624C69.5353 34.9282 69.4111 34.8861 69.304 34.8359V34.2788C69.4749 34.3494 69.6834 34.4155 69.9295 34.4771C70.1756 34.5363 70.4331 34.5659 70.702 34.5659C70.9526 34.5659 71.1645 34.5329 71.3377 34.4668C71.5109 34.3984 71.6419 34.3016 71.7308 34.1763C71.8219 34.0487 71.8675 33.896 71.8675 33.7183C71.8675 33.5474 71.8299 33.4049 71.7547 33.291C71.6795 33.1748 71.5542 33.07 71.3787 32.9766C71.2055 32.8809 70.9686 32.7795 70.6678 32.6724C70.4559 32.5972 70.269 32.5151 70.1072 32.4263C69.9454 32.3351 69.8099 32.2326 69.7005 32.1187C69.5911 32.0047 69.5079 31.8726 69.451 31.7222C69.3963 31.5718 69.3689 31.3997 69.3689 31.2061C69.3689 30.9395 69.4362 30.7116 69.5706 30.5225C69.7073 30.3311 69.8953 30.1852 70.1346 30.085C70.3761 29.9824 70.653 29.9312 70.9651 29.9312C71.2317 29.9312 71.4778 29.9562 71.7034 30.0063C71.9313 30.0565 72.1398 30.1237 72.3289 30.208L72.1478 30.707C71.9677 30.6318 71.7763 30.5692 71.5735 30.519C71.373 30.4689 71.1657 30.4438 70.9515 30.4438C70.7373 30.4438 70.5561 30.4757 70.408 30.5396C70.2622 30.6011 70.1505 30.6888 70.073 30.8027C69.9956 30.9167 69.9568 31.0522 69.9568 31.2095C69.9568 31.3849 69.9933 31.5308 70.0662 31.647C70.1414 31.7632 70.2599 31.8669 70.4217 31.958C70.5857 32.0469 70.8022 32.1403 71.0711 32.2383C71.365 32.3454 71.6145 32.4593 71.8196 32.5801C72.0247 32.6986 72.1808 32.8444 72.2879 33.0176C72.395 33.1885 72.4485 33.4061 72.4485 33.6704ZM79.9045 32.4946C79.9045 32.8797 79.8555 33.2306 79.7575 33.5474C79.6595 33.8618 79.5137 34.133 79.32 34.3608C79.1286 34.5864 78.8905 34.7607 78.6057 34.8838C78.3208 35.0068 77.9904 35.0684 77.6144 35.0684C77.2271 35.0684 76.8887 35.0068 76.5993 34.8838C76.3122 34.7607 76.0729 34.5853 75.8815 34.3574C75.6924 34.1296 75.55 33.8573 75.4543 33.5405C75.3609 33.2238 75.3142 32.8729 75.3142 32.4878C75.3142 31.9774 75.3985 31.5296 75.5671 31.1445C75.7357 30.7594 75.9909 30.4598 76.3327 30.2456C76.6768 30.0314 77.1074 29.9243 77.6247 29.9243C78.1192 29.9243 78.535 30.0303 78.8723 30.2422C79.2118 30.4541 79.4681 30.7526 79.6413 31.1377C79.8168 31.5205 79.9045 31.9728 79.9045 32.4946ZM75.926 32.4946C75.926 32.9185 75.9864 33.2853 76.1071 33.5952C76.2279 33.9051 76.4125 34.1444 76.6608 34.313C76.9115 34.4816 77.2294 34.5659 77.6144 34.5659C78.0018 34.5659 78.3186 34.4816 78.5646 34.313C78.813 34.1444 78.9964 33.9051 79.1149 33.5952C79.2334 33.2853 79.2927 32.9185 79.2927 32.4946C79.2927 31.8498 79.1571 31.3462 78.8859 30.9839C78.6171 30.6193 78.1966 30.437 77.6247 30.437C77.2373 30.437 76.9183 30.5202 76.6677 30.6865C76.417 30.8529 76.2302 31.0898 76.1071 31.3975C75.9864 31.7028 75.926 32.0685 75.926 32.4946ZM84.4688 30.0029C84.879 30.0029 85.2174 30.0542 85.484 30.1567C85.7529 30.257 85.9534 30.4108 86.0855 30.6182C86.2177 30.8255 86.2838 31.0898 86.2838 31.4111C86.2838 31.6755 86.2359 31.8965 86.1402 32.0742C86.0445 32.2497 85.9192 32.3921 85.7643 32.5015C85.6093 32.6108 85.4441 32.6951 85.2687 32.7544L86.6393 35H85.9625L84.7389 32.915H83.6998V35H83.1188V30.0029H84.4688ZM84.4347 30.5054H83.6998V32.4229H84.4928C84.9007 32.4229 85.2003 32.3397 85.3917 32.1733C85.5854 32.007 85.6822 31.762 85.6822 31.4385C85.6822 31.099 85.5797 30.8586 85.3746 30.7173C85.1718 30.576 84.8585 30.5054 84.4347 30.5054ZM91.0737 35H90.4893V30.5156H88.917V30.0029H92.6392V30.5156H91.0737V35Z" fill="white"/>
</g>
<g filter="url(#filter1_d_753_812)">
<path d="M2.41 21.852V10.512H0.43V9.864H2.41V5.22L9.106 3.564V9.864H13.786V10.512H9.106V22.644C9.106 23.772 9.214 24.6 9.43 25.128C9.67 25.656 10.15 25.92 10.87 25.92C11.59 25.92 12.214 25.56 12.742 24.84C13.294 24.12 13.654 23.136 13.822 21.888L14.434 21.96C14.242 23.616 13.714 24.936 12.85 25.92C11.986 26.88 10.558 27.36 8.566 27.36C6.574 27.36 5.05 26.964 3.994 26.172C2.938 25.38 2.41 23.94 2.41 21.852ZM26.7384 10.512V9.864H36.0264V10.512H34.5504L37.7904 22.644L40.9944 10.512H38.5104V9.864H43.3704V10.512H41.8584L37.5384 27H32.6064L29.4744 15.948L26.0904 27H21.2664L15.9384 10.512H14.3184V9.864H25.2264V10.512H23.0664L26.3784 22.752L28.9704 14.328L28.0704 10.512H26.7384ZM49.7418 7.38C48.4698 7.38 47.5578 7.056 47.0058 6.408C46.4778 5.76 46.2138 4.956 46.2138 3.996C46.2138 3.036 46.5018 2.244 47.0778 1.62C47.6778 0.995999 48.5778 0.684 49.7778 0.684C50.9778 0.684 51.8898 0.972 52.5138 1.548C53.1378 2.1 53.4498 2.904 53.4498 3.96C53.4498 4.992 53.1498 5.82 52.5498 6.444C51.9498 7.068 51.0138 7.38 49.7418 7.38ZM44.3058 9.864H53.1258V26.352H55.1418V27H44.4498V26.352H46.4298V10.512H44.3058V9.864ZM55.9476 9.864H64.6236V13.176C65.0076 12.072 65.5956 11.184 66.3876 10.512C67.1796 9.84 68.3796 9.504 69.9876 9.504C73.7076 9.504 75.5676 11.508 75.5676 15.516V26.352H77.5836V27H67.3956V26.352H68.8716V14.652C68.8716 13.212 68.7756 12.288 68.5836 11.88C68.3916 11.448 68.0436 11.232 67.5396 11.232C66.7716 11.232 66.0876 11.736 65.4876 12.744C64.9116 13.752 64.6236 14.976 64.6236 16.416V26.352H66.1716V27H55.9476V26.352H57.9276V10.512H55.9476V9.864ZM94.608 10.152C93.552 10.152 92.796 10.728 92.34 11.88C91.884 13.032 91.656 14.94 91.656 17.604V19.476C91.656 21.852 91.92 23.556 92.448 24.588C92.976 25.62 93.948 26.136 95.364 26.136C96.78 26.136 97.908 25.656 98.748 24.696C99.588 23.736 100.128 22.644 100.368 21.42L101.016 21.492C100.56 23.556 99.72 25.044 98.496 25.956C97.248 26.892 95.532 27.36 93.348 27.36C90.564 27.36 88.428 26.616 86.94 25.128C85.452 23.616 84.708 21.42 84.708 18.54C84.708 15.636 85.548 13.404 87.228 11.844C88.932 10.284 91.296 9.504 94.32 9.504C96.456 9.504 98.088 9.924 99.216 10.764C100.344 11.58 100.908 12.612 100.908 13.86C100.908 15.108 100.632 16.02 100.08 16.596C99.552 17.172 98.808 17.46 97.848 17.46C96.912 17.46 96.156 17.208 95.58 16.704C95.004 16.2 94.716 15.456 94.716 14.472C94.716 14.04 94.776 13.608 94.896 13.176H96.084C96.252 12.696 96.336 12.264 96.336 11.88C96.336 10.728 95.76 10.152 94.608 10.152ZM110.606 9.864V23.904C110.606 27.84 109.922 30.84 108.554 32.904C107.21 34.968 105.002 36 101.93 36C99.9383 36 98.4863 35.604 97.5743 34.812C96.6383 34.02 96.1703 33.096 96.1703 32.04C96.1703 30.984 96.4823 30.168 97.1063 29.592C97.7303 29.04 98.5103 28.764 99.4463 28.764C100.382 28.764 101.09 29.016 101.57 29.52C102.026 30.048 102.254 30.624 102.254 31.248C102.254 31.872 102.182 32.472 102.038 33.048H100.67C100.286 33.696 100.238 34.248 100.526 34.704C100.79 35.16 101.282 35.388 102.002 35.388C102.746 35.388 103.25 34.968 103.514 34.128C103.778 33.312 103.91 31.608 103.91 29.016V10.512H101.57V9.864H110.606ZM107.186 7.38C105.914 7.38 105.002 7.056 104.45 6.408C103.922 5.76 103.658 4.956 103.658 3.996C103.658 3.036 103.946 2.244 104.522 1.62C105.122 0.995999 106.022 0.684 107.222 0.684C108.422 0.684 109.334 0.972 109.958 1.548C110.582 2.1 110.894 2.904 110.894 3.96C110.894 4.992 110.594 5.82 109.994 6.444C109.394 7.068 108.458 7.38 107.186 7.38Z" fill="white"/>
</g>
<defs>
<filter id="filter0_d_753_812" x="-3.02734" y="29.9243" width="99.666" height="13.144" filterUnits="userSpaceOnUse" color-interpolation-filters="sRGB">
<feFlood flood-opacity="0" result="BackgroundImageFix"/>
<feColorMatrix in="SourceAlpha" type="matrix" values="0 0 0 0 0 0 0 0 0 0 0 0 0 0 0 0 0 0 127 0" result="hardAlpha"/>
<feOffset dy="4"/>
<feGaussianBlur stdDeviation="2"/>
<feComposite in2="hardAlpha" operator="out"/>
<feColorMatrix type="matrix" values="0 0 0 0 0 0 0 0 0 0 0 0 0 0 0 0 0 0 0.25 0"/>
<feBlend mode="normal" in2="BackgroundImageFix" result="effect1_dropShadow_753_812"/>
<feBlend mode="normal" in="SourceGraphic" in2="effect1_dropShadow_753_812" result="shape"/>
</filter>
<filter id="filter1_d_753_812" x="-14.5703" y="-10.3159" width="140.465" height="65.3159" filterUnits="userSpaceOnUse" color-interpolation-filters="sRGB">
<feFlood flood-opacity="0" result="BackgroundImageFix"/>
<feColorMatrix in="SourceAlpha" type="matrix" values="0 0 0 0 0 0 0 0 0 0 0 0 0 0 0 0 0 0 127 0" result="hardAlpha"/>
<feOffset dy="4"/>
<feGaussianBlur stdDeviation="7.5"/>
<feComposite in2="hardAlpha" operator="out"/>
<feColorMatrix type="matrix" values="0 0 0 0 0 0 0 0 0 0 0 0 0 0 0 0 0 0 0.25 0"/>
<feBlend mode="normal" in2="BackgroundImageFix" result="effect1_dropShadow_753_812"/>
<feBlend mode="normal" in="SourceGraphic" in2="effect1_dropShadow_753_812" result="shape"/>
</filter>
</defs>
</svg>
